<svg width="42" height="34" viewBox="0 0 42 34" fill="none" xmlns="http://www.w3.org/2000/svg">
<path d="M11.4 6.375C12.2553 6.375 13.0756 6.03918 13.6804 5.4414C14.2852 4.84363 14.625 4.03288 14.625 3.1875C14.625 2.34212 14.2852 1.53137 13.6804 0.933597C13.0756 0.335825 12.2553 0 11.4 0C10.5447 0 9.72437 0.335825 9.11957 0.933597C8.51476 1.53137 8.17499 2.34212 8.17499 3.1875C8.17499 4.03288 8.51476 4.84363 9.11957 5.4414C9.72437 6.03918 10.5447 6.375 11.4 6.375ZM10.8625 31.875V23.375H11.9375V31.875C11.9375 33.0504 12.8983 34 14.0875 34C15.2767 34 16.2375 33.0504 16.2375 31.875V12.75H20H24.3H25.375C26.5642 12.75 27.525 11.8004 27.525 10.625C27.525 9.44961 26.5642 8.5 25.375 8.5H24.3V4.25H37.2V17H24.3V14.875H20V18.0625C20 19.8223 21.4445 21.25 23.225 21.25H38.275C40.0555 21.25 41.5 19.8223 41.5 18.0625V3.1875C41.5 1.42773 40.0555 0 38.275 0H23.225C21.4445 0 20 1.42773 20 3.1875V8.5H14.8333H10.3989C8.13467 8.5 6.03842 9.67539 4.86936 11.5945L0.952329 18.0359C0.340923 19.0387 0.670141 20.3469 1.68467 20.9512C2.6992 21.5555 4.0228 21.2301 4.6342 20.2273L6.56249 17.0598V31.875C6.56249 33.0504 7.52327 34 8.71249 34C9.9017 34 10.8625 33.0504 10.8625 31.875Z" fill="white"/>
</svg>
