<svg width="40" height="41" viewBox="0 0 40 41" fill="none" xmlns="http://www.w3.org/2000/svg">
<path d="M38.1736 10.1953C37.7361 8.34375 36.4514 6.89062 34.8195 6.39844C31.8611 5.5 20 5.5 20 5.5C20 5.5 8.1389 5.5 5.18056 6.39844C3.54862 6.89062 2.2639 8.34375 1.8264 10.1953C1.03473 13.5469 1.03473 20.5312 1.03473 20.5312C1.03473 20.5312 1.03473 27.5156 1.8264 30.8672C2.2639 32.7188 3.54862 34.1094 5.18056 34.6016C8.1389 35.5 20 35.5 20 35.5C20 35.5 31.8611 35.5 34.8195 34.6016C36.4514 34.1094 37.7361 32.7109 38.1736 30.8672C38.9653 27.5156 38.9653 20.5312 38.9653 20.5312C38.9653 20.5312 38.9653 13.5469 38.1736 10.1953ZM16.125 26.875V14.1875L26.0347 20.5312L16.125 26.875Z" fill="white"/>
</svg>
